78 year old Carl Fredricksen has always dreamed of seeing the rainforests of South America. To achieve this, Carl comes up with the spectacular scheme of tying thousands of balloons to his house and floating around the world. However, upon take-off he realises he has a stowaway; Russell, an 8 year old who has the same intrepid instinct as Carl.

Winner of the BAFTA Awards for Best Animated Film and Best Music

Format : MPEG-4
Format profile : Base Media / Version 2
Codec ID : mp42
File size : 1 001 MiB
Duration : 1h 36mn
Overall bit rate : 1 456 Kbps
Encoded date : UTC 2010-02-26 18:19:51
Tagged date : UTC 2010-02-26 21:53:17
Writing application : HandBrake 0.9.3 2008112300

Video
ID : 1
Format : AVC
Format/Info : Advanced Video Codec
Format profile : Main@L4.0
Format settings, CABAC : Yes
Format settings, ReFrames : 3 frames
Codec ID : avc1
Codec ID/Info : Advanced Video Coding
Duration : 1h 36mn
Bit rate mode : Variable
Bit rate : 1 291 Kbps
Width : 720 pixels
Height : 480 pixels
Display aspect ratio : 16:9
Frame rate mode : Variable
Frame rate : 23.976 fps
Minimum frame rate : 14.986 fps
Maximum frame rate : 120.000 fps
Standard : NTSC
Resolution : 8 bits
Colorimetry : 4:2:0
Scan type : Progressive
Bits/(Pixel*Frame) : 0.156
Stream size : 888 MiB (89%)
Writing library : x264 core 65

Language : English
Encoded date : UTC 2010-02-26 18:19:51
Tagged date : UTC 2010-02-26 21:53:17
Color primaries : BT.601-6 525, BT.1358 525, BT.1700 NTSC, SMPTE 170M
Transfer characteristics : BT.709-5, BT.1361
Matrix coefficients : BT.601-6 525, BT.1358 525, BT.1700 NTSC, SMPTE 170M

Audio
ID : 2
Format : AAC
Format/Info : Advanced Audio Codec
Format version : Version 4
Format profile : LC
Format settings, SBR : No
Codec ID : 40
Duration : 1h 36mn
Bit rate mode : Variable
Bit rate : 159 Kbps
Maximum bit rate : 258 Kbps
Channel(s) : 2 channels
Channel positions : L R
Sampling rate : 48.0 KHz
Stream size : 110 MiB (11%)
Language : English
Encoded date : UTC 2010-02-26 18:19:51
Tagged date : UTC 2010-02-26 21:53:11

